pedal_clip_forces.mot
version=1
nRows=251
nColumns=4
inDegrees=yes
endheader
time	PedalClip_calcn_r_Fx	PedalClip_calcn_r_Fy	PedalClip_calcn_r_Fz
0.29018538	-511.949785117694	920.195565098322	0
0.29063349	-512.690793437888	922.372511665849	0
0.29091441	-513.412745622677	924.400460489757	0
0.29125945	-514.116687628576	926.320685721461	0
0.29159569	-514.800556696259	928.161454497781	0
0.29185881	-515.461312684328	929.939910708316	0
0.2919501	-516.096619721448	931.668192070267	0
0.29199575	-516.705664454091	933.35821993183	0
0.29201857	-517.290497047658	935.021951070668	0
0.29202998	-517.85374200607	936.668918685081	0
0.29203985	-518.390159156518	938.302729350518	0
0.29205181	-518.888733587265	939.92062900417	0
0.29207018	-519.357012228237	941.519267004309	0
0.29209624	-519.848376798518	943.094651973724	0
0.29222654	-520.441765005119	944.643911279284	0
0.29287803	-521.116088157551	946.166231942764	0
0.29293717	-521.79330426821	947.664086295051	0
0.29301066	-522.454097534243	949.14850970574	0
0.29308295	-523.089786408846	950.640913691713	0
0.29313349	-523.692199892779	952.163687827022	0
0.29319574	-524.25459458973	953.717239248577	0
0.29328021	-524.77236379767	955.25942125801	0
0.29341763	-525.243811975795	956.730963443732	0
0.2941047	-525.671703460396	958.112722115305	0
0.29429086	-526.061504953955	959.431718457516	0
0.29500645	-526.414065249968	960.696823959876	0
0.29512594	-526.72624567278	961.907606925736	0
0.29548415	-526.993358442036	963.063865690851	0
0.29593037	-527.210006396621	964.166306508759	0
0.29651254	-527.373206864804	965.215225551145	0
0.29659287	-527.484594880248	966.211396789549	0
0.2967165	-527.547368157728	967.15528438057	0
0.29720342	-527.563889473976	968.045497720215	0
0.29747207	-527.535411686038	968.878276410014	0
0.29845176	-527.462477214583	969.64966690581	0
0.29862338	-527.344834782653	970.357058904648	0
0.29924025	-527.181039940988	970.999089227197	0
0.29934977	-526.970703030298	971.574729210223	0
0.29989741	-526.71412611751	972.083715133445	0
0.30026073	-526.411783187769	972.52671331386	0
0.30207733	-526.064118542857	972.904883037491	0
0.30209952	-525.671484779136	973.219476701467	0
0.30212635	-525.234135294287	973.471618545812	0
0.3022605	-524.752231929	973.662225985095	0
0.30293125	-524.225851154151	973.792010862056	0
0.30442938	-523.654983150893	973.861513118334	0
0.30470851	-523.039522253818	973.871144529063	0
0.30610421	-522.379248124796	973.82121990348	0
0.30612591	-521.673795945442	973.71197805406	0
0.30619993	-520.922608460903	973.543593293474	0
0.30642469	-520.124869472177	973.316185729421	0
0.30754849	-519.279417622155	973.029826401379	0
0.30774689	-518.384630728084	972.684534251785	0
0.3087389	-517.438275122929	972.280265001769	0
0.31179212	-516.43732380733	971.816889848114	0
0.31183383	-515.37777545465	971.294158627428	0
0.31187555	-514.25457826917	970.711637981786	0
0.31193852	-513.061919220359	970.068633898865	0
0.31225339	-511.794408999861	969.364130899734	0
0.31280378	-510.449936817883	968.596783850688	0
0.31421394	-509.034464792974	967.765116433282	0
0.31424021	-507.566256542803	966.868079942951	0
0.31427785	-506.05668593505	965.905127376606	0
0.31446607	-504.465137369365	964.874430293157	0
0.31513974	-502.795630404175	963.775723526392	0
0.31588003	-501.115331210885	962.611899017067	0
0.31602807	-499.484247063831	961.388405632625	0
0.31676825	-497.913521880451	960.109974945995	0
0.31680054	-496.39395559405	958.779140792981	0
0.31684664	-494.914653362212	957.397774510193	0
0.31706523	-493.462641699299	955.967636678121	0
0.31781347	-492.025662912469	954.489537408144	0
0.31784268	-490.593948518717	952.963391494422	0
0.31789737	-489.158825861409	951.386718830207	0
0.31817084	-487.71130137428	949.753225357422	0
0.31861044	-486.24735555559	948.062866068978	0
0.31960762	-484.764672421572	946.319997893362	0
0.31963561	-483.263049187597	944.528678036245	0
0.31967903	-481.741384870047	942.690449574179	0
0.3198961	-480.199067707406	940.808760042646	0
0.32023517	-478.635456618512	938.88648083387	0
0.32116332	-477.0501330158	936.926284499021	0
0.32133092	-475.443900282295	934.929317697306	0
0.32202579	-473.820993039099	932.894702197426	0
0.32205401	-472.186158926153	930.821332037127	0
0.32209193	-470.537931621364	928.70966218758	0
0.3222815	-468.866389903474	926.561838826587	0
0.32237629	-467.155438572461	924.379020451947	0
0.3224627	-465.390132354117	922.159788703285	0
0.32250591	-463.559917028799	919.900378269383	0
0.32255963	-461.659055529707	917.594784215627	0
0.32258649	-459.694017242191	915.236316613639	0
0.32261335	-457.690303650689	912.816787225619	0
0.32265267	-455.690244784345	910.323708216188	0
0.32271341	-453.741446727981	907.744365177898	0
0.32301713	-451.874627527442	905.063152493578	0
0.32393246	-450.0896842559	902.260046936585	0
0.32410546	-448.359642460842	899.312946241	0
0.32476808	-446.649978798334	896.192250268089	0
0.32479957	-444.953578038544	892.880774132164	0
0.32487343	-443.271124753082	889.385329203732	0
0.32503752	-441.60355042431	885.749537773575	0
0.3253851	-439.951646207633	882.05966784213	0
0.32633832	-438.316029653101	878.439530080394	0
0.32657092	-436.696974297536	875.011963685141	0
0.32715743	-435.09439043826	871.841942351931	0
0.32736414	-433.50791394471	868.91635224366	0
0.32817559	-431.937019205324	866.174629636105	0
0.32820092	-430.381116561895	863.555374868699	0
0.32822625	-428.839620229755	861.018086250595	0
0.3283529	-427.311987901497	858.540494114293	0
0.32898615	-425.797738854757	856.106228692027	0
0.32900636	-424.296726294276	853.713773672105	0
0.32902657	-422.810193279308	851.367631448606	0
0.3291181	-421.340588108019	849.072675793341	0
0.32947919	-419.889000129966	846.829554493969	0
0.32981338	-418.455468365613	844.635461087415	0
0.33065116	-417.040337204168	842.486984890215	0
0.33066932	-415.641999789315	840.378271379854	0
0.33068747	-414.257623356729	838.303563549135	0
0.33077824	-412.884147375553	836.259390437417	0
0.3312321	-411.518779237123	834.242127697218	0
0.33167679	-410.159496444822	832.244868565572	0
0.33172126	-408.805689394982	830.259798031746	0
0.33178714	-407.458327430206	828.280961773302	0
0.33211655	-406.119661201723	826.306996605707	0
0.33269389	-404.792503771737	824.340854115845	0
0.33274105	-403.479537799108	822.38884045728	0
0.33281584	-402.182542375236	820.459422803697	0
0.33318979	-400.901559849453	818.560471377102	0
0.33369394	-399.634264116988	816.695930023176	0
0.33374436	-398.376355451037	814.865373497322	0
0.33385198	-397.123131901648	813.063461813218	0
0.33420517	-395.871485670458	811.279902661216	0
0.33469696	-394.621267410998	809.50404244307	0
0.33474614	-393.37492047074	807.730547850273	0
0.33483353	-392.133334513799	805.959872766736	0
0.33527052	-390.896593423988	804.193548516934	0
0.33532853	-389.664709965651	802.431977509643	0
0.33543938	-388.437775669778	800.67520801358	0
0.33599359	-387.216040591231	798.923495443856	0
0.33602699	-385.999738908037	797.176821344839	0
0.33607477	-384.788860378281	795.434757924727	0
0.33631367	-383.583189666788	793.696631894538	0
0.33663318	-382.382396301664	791.961674486422	0
0.33715222	-381.186094754596	790.229164559894	0
0.33720413	-379.993876310622	788.498557939996	0
0.3372847	-378.805385950136	786.76921190038	0
0.33768754	-377.620549445469	785.040519231512	0
0.33811379	-376.439519443166	783.312089871861	0
0.33815641	-375.262085570973	781.583229870536	0
0.33825401	-374.087722171726	779.853016547122	0
0.3387343	-372.915798911089	778.120591095974	0
0.33877408	-371.745510854938	776.385056333447	0
0.33881386	-370.576137483031	774.645430068066	0
0.33901276	-369.406923854632	772.900231795814	0
0.33923692	-368.236925664389	771.147651196852	0
0.34000141	-367.065276078893	769.385998893157	0
0.34015789	-365.891411927221	767.614012059119	0
0.34067253	-364.715160778971	765.831042591486	0
0.34074079	-363.53675656039	764.037180292331	0
0.34082623	-362.35681262769	762.233332386904	0
0.34094595	-361.176059037406	760.420558686517	0
0.34137036	-359.994691808616	758.598813339302	0
0.34142775	-358.812699703908	756.767780444113	0
0.34154995	-357.630033956627	754.927088757153	0
0.34208277	-356.44665507713	753.076381116625	0
0.34211595	-355.262529650409	751.215321488238	0
0.34215702	-354.077638562196	749.343630789751	0
0.34236235	-352.891956083487	747.461196860922	0
0.34307422	-351.705473081108	745.568058640083	0
0.34316243	-350.51823612082	743.664435245261	0
0.34329877	-349.330387292204	741.750774481933	0
0.34376625	-348.142154737295	739.827675226283	0
0.34382245	-346.953647681841	737.89539906628	0
0.34389345	-345.764917337348	735.954155898514	0
0.34403238	-344.575989105544	734.004314514706	0
0.34422352	-343.38685886226	732.046318386052	0
0.3445895	-342.197288411485	730.080215796411	0
0.34496955	-341.007066220074	728.106031702035	0
0.34500755	-339.816064521831	726.123856452494	0
0.34505743	-338.624281454746	724.133827222793	0
0.34517153	-337.431753881935	722.136032727083	0
0.34540771	-336.238563150002	720.130458258369	0
0.34583707	-335.044696577185	718.117110454525	0
0.34601904	-333.849761481877	716.09583687233	0
0.34653561	-332.653270685603	714.065693335323	0
0.34667203	-331.454525026457	712.025040124764	0
0.34714497	-330.252760237324	709.971904356662	0
0.3472034	-329.04760719483	707.904630413863	0
0.34726183	-327.839689316717	705.822980617245	0
0.34733585	-326.629816759694	703.727503067743	0
0.34746692	-325.418938082045	701.619251292493	0
0.34765537	-324.20848162245	699.500215670336	0
0.34802408	-322.999708654237	697.37258191866	0
0.34832976	-321.793464107375	695.238390484846	0
0.34876506	-320.590043955604	693.098826377788	0
0.34899193	-319.38949451269	690.954526768117	0
0.34928901	-318.191605955874	688.805912556503	0
0.34968724	-316.996020922308	686.653564634246	0
0.34972707	-315.802593223236	684.498432561631	0
0.34984099	-314.61136879296	682.341265551238	0
0.35008561	-313.422495099298	680.182570008165	0
0.3504097	-312.236215371657	678.02284148646	0
0.35080027	-311.052714402224	675.862298164734	0
0.35083933	-309.871872882957	673.70068387798	0
0.35091415	-308.693539279598	671.53760089262	0
0.35107845	-307.517949610951	669.373344736875	0
0.35125941	-306.345662633443	667.208614948893	0
0.35170462	-305.177165738258	665.043412379915	0
0.35186181	-304.01284558714	662.876956265647	0
0.35231287	-302.852891539289	660.707976277941	0
0.3524256	-301.697274945229	658.535348298654	0
0.35298922	-300.546048095357	656.359308377646	0
0.35301979	-299.3999119266	654.1818468504	0
0.35305036	-298.259536282403	652.005142535412	0
0.35320319	-297.125278061453	649.83095524621	0
0.35365591	-295.997701942563	647.660987205947	0
0.35406724	-294.877271471293	645.496441328822	0
0.35427345	-293.764334799181	643.338198584747	0
0.3549407	-292.659378395652	641.188042163082	0
0.35496098	-291.56305217658	639.048956242679	0
0.35498125	-290.476001538825	636.923940697621	0
0.35508261	-289.39867661005	634.81491526984	0
0.35532266	-288.331132973253	632.72199771798	0
0.35576235	-287.272972095062	630.644074313688	0
0.35580632	-286.223530946952	628.579595638002	0
0.3560171	-285.182297841571	626.527066612141	0
0.35621337	-284.148992650941	624.485636005677	0
0.35680608	-283.123583013571	622.455621932555	0
0.35686535	-282.106230466928	620.437869355134	0
0.35692462	-281.097355457512	618.433406910792	0
0.35722098	-280.097815742264	616.443677906853	0
0.35759519	-279.108366704418	614.469931492352	0
0.35763261	-278.129611562794	612.513128122773	0
0.35770789	-277.161757545068	610.573407621789	0
0.35783946	-276.205041585459	608.650706751686	0
0.35801028	-275.259210669918	606.745123543507	0
0.35835249	-274.323723768304	604.856918304916	0
0.35866414	-273.397576276341	602.985934297543	0
0.35870175	-272.47983841463	601.132131725119	0
0.35876039	-271.569370396494	599.294363094022	0
0.35905354	-270.665064941063	597.47054896677	0
0.3594714	-269.766158397328	595.658370752162	0
0.35951318	-268.872413791539	593.855995042969	0
0.35957769	-267.983733151067	592.062564872453	0
0.35982284	-267.100080376097	590.277555419482	0
0.36003678	-266.221492336219	588.500330281292	0
0.36053159	-265.348096177487	586.730337401953	0
0.36058108	-264.479910774925	584.967076603418	0
0.36065188	-263.61701265967	583.210378932706	0
